<svg xmlns="http://www.w3.org/2000/svg" viewBox="0 0 32 32" width="32" height="32">
  <defs>
    <linearGradient id="bellGradient" x1="0%" y1="0%" x2="100%" y2="100%">
      <stop offset="0%" style="stop-color:#FFD700;stop-opacity:1" />
      <stop offset="50%" style="stop-color:#FFA500;stop-opacity:1" />
      <stop offset="100%" style="stop-color:#FF8C00;stop-opacity:1" />
    </linearGradient>
    <linearGradient id="handleGradient" x1="0%" y1="0%" x2="100%" y2="100%">
      <stop offset="0%" style="stop-color:#8B4513;stop-opacity:1" />
      <stop offset="100%" style="stop-color:#654321;stop-opacity:1" />
    </linearGradient>
  </defs>
  
  <!-- Bell Handle -->
  <rect x="14" y="4" width="4" height="6" rx="2" fill="url(#handleGradient)" />
  
  <!-- Bell Body -->
  <path d="M8 10 Q8 8 10 8 L22 8 Q24 8 24 10 L24 18 Q24 22 20 24 L12 24 Q8 22 8 18 Z" 
        fill="url(#bellGradient)" 
        stroke="#B8860B" 
        stroke-width="0.5"/>
  
  <!-- Bell Rim -->
  <ellipse cx="16" cy="24" rx="8" ry="2" fill="#DAA520" stroke="#B8860B" stroke-width="0.5"/>
  
  <!-- Bell Clapper -->
  <circle cx="16" cy="20" r="1.5" fill="#696969"/>
  
  <!-- Highlight on bell -->
  <ellipse cx="13" cy="14" rx="2" ry="4" fill="#FFFF99" opacity="0.6"/>
  
  <!-- Sound waves -->
  <path d="M26 12 Q28 14 28 16 Q28 18 26 20" 
        fill="none" 
        stroke="#DC2626" 
        stroke-width="1.5" 
        stroke-linecap="round" 
        opacity="0.8"/>
  <path d="M6 12 Q4 14 4 16 Q4 18 6 20" 
        fill="none" 
        stroke="#DC2626" 
        stroke-width="1.5" 
        stroke-linecap="round" 
        opacity="0.8"/>
  <path d="M28 10 Q31 14 31 16 Q31 18 28 22" 
        fill="none" 
        stroke="#DC2626" 
        stroke-width="1" 
        stroke-linecap="round" 
        opacity="0.6"/>
  <path d="M4 10 Q1 14 1 16 Q1 18 4 22" 
        fill="none" 
        stroke="#DC2626" 
        stroke-width="1" 
        stroke-linecap="round" 
        opacity="0.6"/>
</svg>